<svg version="1.1" xmlns="http://www.w3.org/2000/svg" xmlns:xlink="http://www.w3.org/1999/xlink" width="860" height="460"><defs/><g><g transform="translate(-246,-206) scale(1,1)"><rect fill="#C0C0C0" stroke="none" x="551" y="407" width="176" height="64" opacity="0.2"/></g><g transform="translate(-246,-206) scale(1,1)"><rect fill="#ffffff" stroke="none" x="544" y="400" width="176" height="64"/></g><g transform="translate(-246,-206) scale(1,1)"><path fill="none" stroke="#000000" d="M 544 400 L 720 400 L 720 464 L 544 464 L 544 400 Z Z" stroke-miterlimit="10"/></g><g transform="translate(-246,-206) scale(1,1)"><path fill="none" stroke="#000000" d="M 544 423 L 720 423" stroke-miterlimit="10"/></g><g transform="translate(-246,-206) scale(1,1)"><path fill="none" stroke="#000000" d="M 572.05908203125 423 L 572.05908203125 464" stroke-miterlimit="10"/></g><g transform="translate(-246,-206) scale(1,1)"><path fill="none" stroke="#000000" d="M 630.44091796875 423 L 630.44091796875 464" stroke-miterlimit="10"/></g><g transform="translate(-246,-206) scale(1,1)"><g><path fill="none" stroke="none"/><text fill="#000000" stroke="none" font-family="Arial" font-size="13px" font-style="normal" font-weight="bold" text-decoration="none" x="610.33544921875" y="415.5">Mentor</text></g></g><g transform="translate(-246,-206) scale(1,1)"><g><path fill="none" stroke="none"/><text fill="#000000" stroke="none" font-family="Arial" font-size="13px" font-style="normal" font-weight="normal" text-decoration="none" x="549" y="437">PK</text></g></g><g transform="translate(-246,-206) scale(1,1)"><g><path fill="none" stroke="none"/><text fill="#000000" stroke="none" font-family="Arial" font-size="13px" font-style="normal" font-weight="normal" text-decoration="none" x="577.05908203125" y="437">id</text></g></g><g transform="translate(-246,-206) scale(1,1)"><g><path fill="none" stroke="none"/><text fill="#000000" stroke="none" font-family="Arial" font-size="13px" font-style="normal" font-weight="normal" text-decoration="none" x="635.44091796875" y="437">INTEGER</text></g></g><g transform="translate(-246,-206) scale(1,1)"><g><path fill="none" stroke="none"/><text fill="#000000" stroke="none" font-family="Arial" font-size="13px" font-style="normal" font-weight="normal" text-decoration="none" x="549" y="434"></text></g></g><g transform="translate(-246,-206) scale(1,1)"><g><path fill="none" stroke="none"/><text fill="#000000" stroke="none" font-family="Arial" font-size="13px" font-style="normal" font-weight="normal" text-decoration="none" x="549" y="452">FK</text></g></g><g transform="translate(-246,-206) scale(1,1)"><g><path fill="none" stroke="none"/><text fill="#000000" stroke="none" font-family="Arial" font-size="13px" font-style="normal" font-weight="normal" text-decoration="none" x="577.05908203125" y="452">idConta</text></g></g><g transform="translate(-246,-206) scale(1,1)"><g><path fill="none" stroke="none"/><text fill="#000000" stroke="none" font-family="Arial" font-size="13px" font-style="normal" font-weight="normal" text-decoration="none" x="635.44091796875" y="452">INTEGER</text></g></g><g transform="translate(-246,-206) scale(1,1)"><g><path fill="none" stroke="none"/><text fill="#000000" stroke="none" font-family="Arial" font-size="13px" font-style="normal" font-weight="normal" text-decoration="none" x="549" y="449"></text></g></g><g transform="translate(-246,-206) scale(1,1)"><rect fill="#C0C0C0" stroke="none" x="871" y="239" width="176" height="64" opacity="0.2"/></g><g transform="translate(-246,-206) scale(1,1)"><rect fill="#ffffff" stroke="none" x="864" y="232" width="176" height="64"/></g><g transform="translate(-246,-206) scale(1,1)"><path fill="none" stroke="#000000" d="M 864 232 L 1040 232 L 1040 296 L 864 296 L 864 232 Z Z" stroke-miterlimit="10"/></g><g transform="translate(-246,-206) scale(1,1)"><path fill="none" stroke="#000000" d="M 864 255 L 1040 255" stroke-miterlimit="10"/></g><g transform="translate(-246,-206) scale(1,1)"><path fill="none" stroke="#000000" d="M 892.05908203125 255 L 892.05908203125 296" stroke-miterlimit="10"/></g><g transform="translate(-246,-206) scale(1,1)"><path fill="none" stroke="#000000" d="M 950.44091796875 255 L 950.44091796875 296" stroke-miterlimit="10"/></g><g transform="translate(-246,-206) scale(1,1)"><g><path fill="none" stroke="none"/><text fill="#000000" stroke="none" font-family="Arial" font-size="13px" font-style="normal" font-weight="bold" text-decoration="none" x="918.779541015625" y="247.5">Mentorado</text></g></g><g transform="translate(-246,-206) scale(1,1)"><g><path fill="none" stroke="none"/><text fill="#000000" stroke="none" font-family="Arial" font-size="13px" font-style="normal" font-weight="normal" text-decoration="none" x="869" y="269">PK</text></g></g><g transform="translate(-246,-206) scale(1,1)"><g><path fill="none" stroke="none"/><text fill="#000000" stroke="none" font-family="Arial" font-size="13px" font-style="normal" font-weight="normal" text-decoration="none" x="897.05908203125" y="269">id</text></g></g><g transform="translate(-246,-206) scale(1,1)"><g><path fill="none" stroke="none"/><text fill="#000000" stroke="none" font-family="Arial" font-size="13px" font-style="normal" font-weight="normal" text-decoration="none" x="955.44091796875" y="269">INTEGER</text></g></g><g transform="translate(-246,-206) scale(1,1)"><g><path fill="none" stroke="none"/><text fill="#000000" stroke="none" font-family="Arial" font-size="13px" font-style="normal" font-weight="normal" text-decoration="none" x="869" y="266"></text></g></g><g transform="translate(-246,-206) scale(1,1)"><g><path fill="none" stroke="none"/><text fill="#000000" stroke="none" font-family="Arial" font-size="13px" font-style="normal" font-weight="normal" text-decoration="none" x="869" y="284">FK</text></g></g><g transform="translate(-246,-206) scale(1,1)"><g><path fill="none" stroke="none"/><text fill="#000000" stroke="none" font-family="Arial" font-size="13px" font-style="normal" font-weight="normal" text-decoration="none" x="897.05908203125" y="284">idConta</text></g></g><g transform="translate(-246,-206) scale(1,1)"><g><path fill="none" stroke="none"/><text fill="#000000" stroke="none" font-family="Arial" font-size="13px" font-style="normal" font-weight="normal" text-decoration="none" x="955.44091796875" y="284">INTEGER</text></g></g><g transform="translate(-246,-206) scale(1,1)"><g><path fill="none" stroke="none"/><text fill="#000000" stroke="none" font-family="Arial" font-size="13px" font-style="normal" font-weight="normal" text-decoration="none" x="869" y="281"></text></g></g><g transform="translate(-246,-206) scale(1,1)"><rect fill="#C0C0C0" stroke="none" x="815" y="383" width="288" height="112" opacity="0.2"/></g><g transform="translate(-246,-206) scale(1,1)"><rect fill="#ffffff" stroke="none" x="808" y="376" width="288" height="112"/></g><g transform="translate(-246,-206) scale(1,1)"><path fill="none" stroke="#000000" d="M 808 376 L 1096 376 L 1096 488 L 808 488 L 808 376 Z Z" stroke-miterlimit="10"/></g><g transform="translate(-246,-206) scale(1,1)"><path fill="none" stroke="#000000" d="M 808 399 L 1096 399" stroke-miterlimit="10"/></g><g transform="translate(-246,-206) scale(1,1)"><path fill="none" stroke="#000000" d="M 857 399 L 857 488" stroke-miterlimit="10"/></g><g transform="translate(-246,-206) scale(1,1)"><path fill="none" stroke="#000000" d="M 1009.314453125 399 L 1009.314453125 488" stroke-miterlimit="10"/></g><g transform="translate(-246,-206) scale(1,1)"><g><path fill="none" stroke="none"/><text fill="#000000" stroke="none" font-family="Arial" font-size="13px" font-style="normal" font-weight="bold" text-decoration="none" x="924.91455078125" y="391.5">Mentoria</text></g></g><g transform="translate(-246,-206) scale(1,1)"><g><path fill="none" stroke="none"/><text fill="#000000" stroke="none" font-family="Arial" font-size="13px" font-style="normal" font-weight="normal" text-decoration="none" x="813" y="413">PK,FK</text></g></g><g transform="translate(-246,-206) scale(1,1)"><g><path fill="none" stroke="none"/><text fill="#000000" stroke="none" font-family="Arial" font-size="13px" font-style="normal" font-weight="normal" text-decoration="none" x="862" y="413">idMentor</text></g></g><g transform="translate(-246,-206) scale(1,1)"><g><path fill="none" stroke="none"/><text fill="#000000" stroke="none" font-family="Arial" font-size="13px" font-style="normal" font-weight="normal" text-decoration="none" x="1014.314453125" y="413">INTEGER</text></g></g><g transform="translate(-246,-206) scale(1,1)"><g><path fill="none" stroke="none"/><text fill="#000000" stroke="none" font-family="Arial" font-size="13px" font-style="normal" font-weight="normal" text-decoration="none" x="813" y="410"></text></g></g><g transform="translate(-246,-206) scale(1,1)"><g><path fill="none" stroke="none"/><text fill="#000000" stroke="none" font-family="Arial" font-size="13px" font-style="normal" font-weight="normal" text-decoration="none" x="813" y="428">PK,FK</text></g></g><g transform="translate(-246,-206) scale(1,1)"><g><path fill="none" stroke="none"/><text fill="#000000" stroke="none" font-family="Arial" font-size="13px" font-style="normal" font-weight="normal" text-decoration="none" x="862" y="428">idMentorado</text></g></g><g transform="translate(-246,-206) scale(1,1)"><g><path fill="none" stroke="none"/><text fill="#000000" stroke="none" font-family="Arial" font-size="13px" font-style="normal" font-weight="normal" text-decoration="none" x="1014.314453125" y="428">INTEGER</text></g></g><g transform="translate(-246,-206) scale(1,1)"><g><path fill="none" stroke="none"/><text fill="#000000" stroke="none" font-family="Arial" font-size="13px" font-style="normal" font-weight="normal" text-decoration="none" x="813" y="425"></text></g></g><g transform="translate(-246,-206) scale(1,1)"><g><path fill="none" stroke="none"/><text fill="#000000" stroke="none" font-family="Arial" font-size="13px" font-style="normal" font-weight="normal" text-decoration="none" x="813" y="434"></text></g></g><g transform="translate(-246,-206) scale(1,1)"><g><path fill="none" stroke="none"/><text fill="#000000" stroke="none" font-family="Arial" font-size="13px" font-style="normal" font-weight="normal" text-decoration="none" x="862" y="443">dataAgendada</text></g></g><g transform="translate(-246,-206) scale(1,1)"><g><path fill="none" stroke="none"/><text fill="#000000" stroke="none" font-family="Arial" font-size="13px" font-style="normal" font-weight="normal" text-decoration="none" x="1014.314453125" y="443">DATETIME</text></g></g><g transform="translate(-246,-206) scale(1,1)"><g><path fill="none" stroke="none"/><text fill="#000000" stroke="none" font-family="Arial" font-size="13px" font-style="normal" font-weight="normal" text-decoration="none" x="813" y="440"></text></g></g><g transform="translate(-246,-206) scale(1,1)"><g><path fill="none" stroke="none"/><text fill="#000000" stroke="none" font-family="Arial" font-size="13px" font-style="normal" font-weight="normal" text-decoration="none" x="813" y="449"></text></g></g><g transform="translate(-246,-206) scale(1,1)"><g><path fill="none" stroke="none"/><text fill="#000000" stroke="none" font-family="Arial" font-size="13px" font-style="normal" font-weight="normal" text-decoration="none" x="862" y="458">avaliacaoDoMentor</text></g></g><g transform="translate(-246,-206) scale(1,1)"><g><path fill="none" stroke="none"/><text fill="#000000" stroke="none" font-family="Arial" font-size="13px" font-style="normal" font-weight="normal" text-decoration="none" x="1014.314453125" y="458">INTEGER</text></g></g><g transform="translate(-246,-206) scale(1,1)"><g><path fill="none" stroke="none"/><text fill="#000000" stroke="none" font-family="Arial" font-size="13px" font-style="normal" font-weight="normal" text-decoration="none" x="813" y="455"></text></g></g><g transform="translate(-246,-206) scale(1,1)"><g><path fill="none" stroke="none"/><text fill="#000000" stroke="none" font-family="Arial" font-size="13px" font-style="normal" font-weight="normal" text-decoration="none" x="813" y="464"></text></g></g><g transform="translate(-246,-206) scale(1,1)"><g><path fill="none" stroke="none"/><text fill="#000000" stroke="none" font-family="Arial" font-size="13px" font-style="normal" font-weight="normal" text-decoration="none" x="862" y="473">avaliacaoDoMentorado</text></g></g><g transform="translate(-246,-206) scale(1,1)"><g><path fill="none" stroke="none"/><text fill="#000000" stroke="none" font-family="Arial" font-size="13px" font-style="normal" font-weight="normal" text-decoration="none" x="1014.314453125" y="473">INTEGER</text></g></g><g transform="translate(-246,-206) scale(1,1)"><g><path fill="none" stroke="none"/><text fill="#000000" stroke="none" font-family="Arial" font-size="13px" font-style="normal" font-weight="normal" text-decoration="none" x="813" y="470"></text></g></g><g transform="translate(-246,-206) scale(1,1)"><rect fill="#C0C0C0" stroke="none" x="263" y="239" width="176" height="64" opacity="0.2"/></g><g transform="translate(-246,-206) scale(1,1)"><rect fill="#ffffff" stroke="none" x="256" y="232" width="176" height="64"/></g><g transform="translate(-246,-206) scale(1,1)"><path fill="none" stroke="#000000" d="M 256 232 L 432 232 L 432 296 L 256 296 L 256 232 Z Z" stroke-miterlimit="10"/></g><g transform="translate(-246,-206) scale(1,1)"><path fill="none" stroke="#000000" d="M 256 255 L 432 255" stroke-miterlimit="10"/></g><g transform="translate(-246,-206) scale(1,1)"><path fill="none" stroke="#000000" d="M 284.05908203125 255 L 284.05908203125 296" stroke-miterlimit="10"/></g><g transform="translate(-246,-206) scale(1,1)"><path fill="none" stroke="#000000" d="M 342.44091796875 255 L 342.44091796875 296" stroke-miterlimit="10"/></g><g transform="translate(-246,-206) scale(1,1)"><g><path fill="none" stroke="none"/><text fill="#000000" stroke="none" font-family="Arial" font-size="13px" font-style="normal" font-weight="bold" text-decoration="none" x="299.5791015625" y="247.5">Administrador</text></g></g><g transform="translate(-246,-206) scale(1,1)"><g><path fill="none" stroke="none"/><text fill="#000000" stroke="none" font-family="Arial" font-size="13px" font-style="normal" font-weight="normal" text-decoration="none" x="261" y="269">PK</text></g></g><g transform="translate(-246,-206) scale(1,1)"><g><path fill="none" stroke="none"/><text fill="#000000" stroke="none" font-family="Arial" font-size="13px" font-style="normal" font-weight="normal" text-decoration="none" x="289.05908203125" y="269">id</text></g></g><g transform="translate(-246,-206) scale(1,1)"><g><path fill="none" stroke="none"/><text fill="#000000" stroke="none" font-family="Arial" font-size="13px" font-style="normal" font-weight="normal" text-decoration="none" x="347.44091796875" y="269">INTEGER</text></g></g><g transform="translate(-246,-206) scale(1,1)"><g><path fill="none" stroke="none"/><text fill="#000000" stroke="none" font-family="Arial" font-size="13px" font-style="normal" font-weight="normal" text-decoration="none" x="261" y="266"></text></g></g><g transform="translate(-246,-206) scale(1,1)"><g><path fill="none" stroke="none"/><text fill="#000000" stroke="none" font-family="Arial" font-size="13px" font-style="normal" font-weight="normal" text-decoration="none" x="261" y="284">FK</text></g></g><g transform="translate(-246,-206) scale(1,1)"><g><path fill="none" stroke="none"/><text fill="#000000" stroke="none" font-family="Arial" font-size="13px" font-style="normal" font-weight="normal" text-decoration="none" x="289.05908203125" y="284">idConta</text></g></g><g transform="translate(-246,-206) scale(1,1)"><g><path fill="none" stroke="none"/><text fill="#000000" stroke="none" font-family="Arial" font-size="13px" font-style="normal" font-weight="normal" text-decoration="none" x="347.44091796875" y="284">INTEGER</text></g></g><g transform="translate(-246,-206) scale(1,1)"><g><path fill="none" stroke="none"/><text fill="#000000" stroke="none" font-family="Arial" font-size="13px" font-style="normal" font-weight="normal" text-decoration="none" x="261" y="281"></text></g></g><g transform="translate(-246,-206) scale(1,1)"><rect fill="#C0C0C0" stroke="none" x="567" y="591" width="160" height="64" opacity="0.2"/></g><g transform="translate(-246,-206) scale(1,1)"><rect fill="#ffffff" stroke="none" x="560" y="584" width="160" height="64"/></g><g transform="translate(-246,-206) scale(1,1)"><path fill="none" stroke="#000000" d="M 560 584 L 720 584 L 720 648 L 560 648 L 560 584 Z Z" stroke-miterlimit="10"/></g><g transform="translate(-246,-206) scale(1,1)"><path fill="none" stroke="#000000" d="M 560 607 L 720 607" stroke-miterlimit="10"/></g><g transform="translate(-246,-206) scale(1,1)"><path fill="none" stroke="#000000" d="M 588.05908203125 607 L 588.05908203125 648" stroke-miterlimit="10"/></g><g transform="translate(-246,-206) scale(1,1)"><path fill="none" stroke="#000000" d="M 634.8818359375 607 L 634.8818359375 648" stroke-miterlimit="10"/></g><g transform="translate(-246,-206) scale(1,1)"><g><path fill="none" stroke="none"/><text fill="#000000" stroke="none" font-family="Arial" font-size="13px" font-style="normal" font-weight="bold" text-decoration="none" x="628.926513671875" y="599.5">Tag</text></g></g><g transform="translate(-246,-206) scale(1,1)"><g><path fill="none" stroke="none"/><text fill="#000000" stroke="none" font-family="Arial" font-size="13px" font-style="normal" font-weight="normal" text-decoration="none" x="565" y="621">PK</text></g></g><g transform="translate(-246,-206) scale(1,1)"><g><path fill="none" stroke="none"/><text fill="#000000" stroke="none" font-family="Arial" font-size="13px" font-style="normal" font-weight="normal" text-decoration="none" x="593.05908203125" y="621">id</text></g></g><g transform="translate(-246,-206) scale(1,1)"><g><path fill="none" stroke="none"/><text fill="#000000" stroke="none" font-family="Arial" font-size="13px" font-style="normal" font-weight="normal" text-decoration="none" x="639.8818359375" y="621">INTEGER</text></g></g><g transform="translate(-246,-206) scale(1,1)"><g><path fill="none" stroke="none"/><text fill="#000000" stroke="none" font-family="Arial" font-size="13px" font-style="normal" font-weight="normal" text-decoration="none" x="565" y="618"></text></g></g><g transform="translate(-246,-206) scale(1,1)"><g><path fill="none" stroke="none"/><text fill="#000000" stroke="none" font-family="Arial" font-size="13px" font-style="normal" font-weight="normal" text-decoration="none" x="565" y="627"></text></g></g><g transform="translate(-246,-206) scale(1,1)"><g><path fill="none" stroke="none"/><text fill="#000000" stroke="none" font-family="Arial" font-size="13px" font-style="normal" font-weight="normal" text-decoration="none" x="593.05908203125" y="636">rotulo</text></g></g><g transform="translate(-246,-206) scale(1,1)"><g><path fill="none" stroke="none"/><text fill="#000000" stroke="none" font-family="Arial" font-size="13px" font-style="normal" font-weight="normal" text-decoration="none" x="639.8818359375" y="636">STRING</text></g></g><g transform="translate(-246,-206) scale(1,1)"><g><path fill="none" stroke="none"/><text fill="#000000" stroke="none" font-family="Arial" font-size="13px" font-style="normal" font-weight="normal" text-decoration="none" x="565" y="633"></text></g></g><g transform="translate(-246,-206) scale(1,1)"><rect fill="#C0C0C0" stroke="none" x="527" y="223" width="216" height="96" opacity="0.2"/></g><g transform="translate(-246,-206) scale(1,1)"><rect fill="#ffffff" stroke="none" x="520" y="216" width="216" height="96"/></g><g transform="translate(-246,-206) scale(1,1)"><path fill="none" stroke="#000000" d="M 520 216 L 736 216 L 736 312 L 520 312 L 520 216 Z Z" stroke-miterlimit="10"/></g><g transform="translate(-246,-206) scale(1,1)"><path fill="none" stroke="#000000" d="M 520 239 L 736 239" stroke-miterlimit="10"/></g><g transform="translate(-246,-206) scale(1,1)"><path fill="none" stroke="#000000" d="M 548.05908203125 239 L 548.05908203125 312" stroke-miterlimit="10"/></g><g transform="translate(-246,-206) scale(1,1)"><path fill="none" stroke="#000000" d="M 641.130859375 239 L 641.130859375 312" stroke-miterlimit="10"/></g><g transform="translate(-246,-206) scale(1,1)"><g><path fill="none" stroke="none"/><text fill="#000000" stroke="none" font-family="Arial" font-size="13px" font-style="normal" font-weight="bold" text-decoration="none" x="609.58544921875" y="231.5">Conta</text></g></g><g transform="translate(-246,-206) scale(1,1)"><g><path fill="none" stroke="none"/><text fill="#000000" stroke="none" font-family="Arial" font-size="13px" font-style="normal" font-weight="normal" text-decoration="none" x="525" y="253">PK</text></g></g><g transform="translate(-246,-206) scale(1,1)"><g><path fill="none" stroke="none"/><text fill="#000000" stroke="none" font-family="Arial" font-size="13px" font-style="normal" font-weight="normal" text-decoration="none" x="553.05908203125" y="253">id</text></g></g><g transform="translate(-246,-206) scale(1,1)"><g><path fill="none" stroke="none"/><text fill="#000000" stroke="none" font-family="Arial" font-size="13px" font-style="normal" font-weight="normal" text-decoration="none" x="646.130859375" y="253">INTEGER</text></g></g><g transform="translate(-246,-206) scale(1,1)"><g><path fill="none" stroke="none"/><text fill="#000000" stroke="none" font-family="Arial" font-size="13px" font-style="normal" font-weight="normal" text-decoration="none" x="525" y="250"></text></g></g><g transform="translate(-246,-206) scale(1,1)"><g><path fill="none" stroke="none"/><text fill="#000000" stroke="none" font-family="Arial" font-size="13px" font-style="normal" font-weight="normal" text-decoration="none" x="525" y="259"></text></g></g><g transform="translate(-246,-206) scale(1,1)"><g><path fill="none" stroke="none"/><text fill="#000000" stroke="none" font-family="Arial" font-size="13px" font-style="normal" font-weight="normal" text-decoration="none" x="553.05908203125" y="268">email</text></g></g><g transform="translate(-246,-206) scale(1,1)"><g><path fill="none" stroke="none"/><text fill="#000000" stroke="none" font-family="Arial" font-size="13px" font-style="normal" font-weight="normal" text-decoration="none" x="646.130859375" y="268">STRING</text></g></g><g transform="translate(-246,-206) scale(1,1)"><g><path fill="none" stroke="none"/><text fill="#000000" stroke="none" font-family="Arial" font-size="13px" font-style="normal" font-weight="normal" text-decoration="none" x="525" y="265"></text></g></g><g transform="translate(-246,-206) scale(1,1)"><g><path fill="none" stroke="none"/><text fill="#000000" stroke="none" font-family="Arial" font-size="13px" font-style="normal" font-weight="normal" text-decoration="none" x="525" y="274"></text></g></g><g transform="translate(-246,-206) scale(1,1)"><g><path fill="none" stroke="none"/><text fill="#000000" stroke="none" font-family="Arial" font-size="13px" font-style="normal" font-weight="normal" text-decoration="none" x="553.05908203125" y="283">senha</text></g></g><g transform="translate(-246,-206) scale(1,1)"><g><path fill="none" stroke="none"/><text fill="#000000" stroke="none" font-family="Arial" font-size="13px" font-style="normal" font-weight="normal" text-decoration="none" x="646.130859375" y="283">STRING</text></g></g><g transform="translate(-246,-206) scale(1,1)"><g><path fill="none" stroke="none"/><text fill="#000000" stroke="none" font-family="Arial" font-size="13px" font-style="normal" font-weight="normal" text-decoration="none" x="525" y="280"></text></g></g><g transform="translate(-246,-206) scale(1,1)"><g><path fill="none" stroke="none"/><text fill="#000000" stroke="none" font-family="Arial" font-size="13px" font-style="normal" font-weight="normal" text-decoration="none" x="525" y="289"></text></g></g><g transform="translate(-246,-206) scale(1,1)"><g><path fill="none" stroke="none"/><text fill="#000000" stroke="none" font-family="Arial" font-size="13px" font-style="normal" font-weight="normal" text-decoration="none" x="553.05908203125" y="298">nomeUsuario</text></g></g><g transform="translate(-246,-206) scale(1,1)"><g><path fill="none" stroke="none"/><text fill="#000000" stroke="none" font-family="Arial" font-size="13px" font-style="normal" font-weight="normal" text-decoration="none" x="646.130859375" y="298">STRING</text></g></g><g transform="translate(-246,-206) scale(1,1)"><g><path fill="none" stroke="none"/><text fill="#000000" stroke="none" font-family="Arial" font-size="13px" font-style="normal" font-weight="normal" text-decoration="none" x="525" y="295"></text></g></g><g transform="translate(-246,-206) scale(1,1)"><path fill="none" stroke="#000000" d="M 432 264 L 520 264" stroke-miterlimit="10"/></g><g transform="translate(-246,-206) scale(1,1)"><path fill="none" stroke="#000000" d="M 513 271 L 513 257" stroke-miterlimit="10"/></g><g transform="translate(-246,-206) scale(1,1)"><path fill="none" stroke="#000000" d="M 506 271 L 506 257" stroke-miterlimit="10"/></g><g transform="translate(-246,-206) scale(1,1)"><path fill="#FFFFFF" stroke="none" d="M 447 264 C 447 260.1340064 450.1340064 257 454 257 C 457.8659936 257 461 260.1340064 461 264 C 461 267.8659936 457.8659936 271 454 271 C 450.1340064 271 447 267.8659936 447 264 Z"/></g><g transform="translate(-246,-206) scale(1,1)"><path fill="none" stroke="#000000" d="M 447 264 C 447 260.1340064 450.1340064 257 454 257 C 457.8659936 257 461 260.1340064 461 264 C 461 267.8659936 457.8659936 271 454 271 C 450.1340064 271 447 267.8659936 447 264 Z" stroke-miterlimit="10"/></g><g transform="translate(-246,-206) scale(1,1)"><path fill="none" stroke="#000000" d="M 439 257 L 439 271" stroke-miterlimit="10"/></g><g transform="translate(-246,-206) scale(1,1)"><g><path fill="none" stroke="none"/><text fill="#000000" stroke="none" font-family="Arial" font-size="13px" font-style="normal" font-weight="normal" text-decoration="none" x="456.5" y="249"></text></g></g><g transform="translate(-246,-206) scale(1,1)"><g><path fill="none" stroke="none"/><text fill="#000000" stroke="none" font-family="Arial" font-size="13px" font-style="normal" font-weight="normal" text-decoration="none" x="493.5" y="249"></text></g></g><g transform="translate(-246,-206) scale(1,1)"><path fill="none" stroke="#000000" d="M 632 400 L 632 312" stroke-miterlimit="10"/></g><g transform="translate(-246,-206) scale(1,1)"><path fill="none" stroke="#000000" d="M 639 319 L 625 319" stroke-miterlimit="10"/></g><g transform="translate(-246,-206) scale(1,1)"><path fill="none" stroke="#000000" d="M 639 326 L 625 326" stroke-miterlimit="10"/></g><g transform="translate(-246,-206) scale(1,1)"><path fill="#FFFFFF" stroke="none" d="M 625 378 C 625 374.1340064 628.1340064 371 632 371 C 635.8659936 371 639 374.1340064 639 378 C 639 381.8659936 635.8659936 385 632 385 C 628.1340064 385 625 381.8659936 625 378 Z"/></g><g transform="translate(-246,-206) scale(1,1)"><path fill="none" stroke="#000000" d="M 625 378 C 625 374.1340064 628.1340064 371 632 371 C 635.8659936 371 639 374.1340064 639 378 C 639 381.8659936 635.8659936 385 632 385 C 628.1340064 385 625 381.8659936 625 378 Z" stroke-miterlimit="10"/></g><g transform="translate(-246,-206) scale(1,1)"><path fill="none" stroke="#000000" d="M 625 393 L 639 393" stroke-miterlimit="10"/></g><g transform="translate(-246,-206) scale(1,1)"><g><path fill="none" stroke="none"/><text fill="#000000" stroke="none" font-family="Arial" font-size="13px" font-style="normal" font-weight="normal" text-decoration="none" x="616.5" y="374"></text></g></g><g transform="translate(-246,-206) scale(1,1)"><g><path fill="none" stroke="none"/><text fill="#000000" stroke="none" font-family="Arial" font-size="13px" font-style="normal" font-weight="normal" text-decoration="none" x="616.5" y="337"></text></g></g><g transform="translate(-246,-206) scale(1,1)"><path fill="none" stroke="#000000" d="M 864 264 L 736 264" stroke-miterlimit="10"/></g><g transform="translate(-246,-206) scale(1,1)"><path fill="none" stroke="#000000" d="M 743 257 L 743 271" stroke-miterlimit="10"/></g><g transform="translate(-246,-206) scale(1,1)"><path fill="none" stroke="#000000" d="M 750 257 L 750 271" stroke-miterlimit="10"/></g><g transform="translate(-246,-206) scale(1,1)"><path fill="#FFFFFF" stroke="none" d="M 835 264 C 835 260.1340064 838.1340064 257 842 257 C 845.8659936 257 849 260.1340064 849 264 C 849 267.8659936 845.8659936 271 842 271 C 838.1340064 271 835 267.8659936 835 264 Z"/></g><g transform="translate(-246,-206) scale(1,1)"><path fill="none" stroke="#000000" d="M 835 264 C 835 260.1340064 838.1340064 257 842 257 C 845.8659936 257 849 260.1340064 849 264 C 849 267.8659936 845.8659936 271 842 271 C 838.1340064 271 835 267.8659936 835 264 Z" stroke-miterlimit="10"/></g><g transform="translate(-246,-206) scale(1,1)"><path fill="none" stroke="#000000" d="M 857 271 L 857 257" stroke-miterlimit="10"/></g><g transform="translate(-246,-206) scale(1,1)"><g><path fill="none" stroke="none"/><text fill="#000000" stroke="none" font-family="Arial" font-size="13px" font-style="normal" font-weight="normal" text-decoration="none" x="837.5" y="278"></text></g></g><g transform="translate(-246,-206) scale(1,1)"><g><path fill="none" stroke="none"/><text fill="#000000" stroke="none" font-family="Arial" font-size="13px" font-style="normal" font-weight="normal" text-decoration="none" x="760.5" y="278"></text></g></g><g transform="translate(-246,-206) scale(1,1)"><path fill="none" stroke="#000000" d="M 720 432 L 808 432" stroke-miterlimit="10"/></g><g transform="translate(-246,-206) scale(1,1)"><path fill="none" stroke="#000000" d="M 794 432 L 808 439" stroke-miterlimit="10"/></g><g transform="translate(-246,-206) scale(1,1)"><path fill="none" stroke="#000000" d="M 794 432 L 808 425" stroke-miterlimit="10"/></g><g transform="translate(-246,-206) scale(1,1)"><path fill="#FFFFFF" stroke="none" d="M 779 432 C 779 428.1340064 782.1340064 425 786 425 C 789.8659936 425 793 428.1340064 793 432 C 793 435.8659936 789.8659936 439 786 439 C 782.1340064 439 779 435.8659936 779 432 Z"/></g><g transform="translate(-246,-206) scale(1,1)"><path fill="none" stroke="#000000" d="M 779 432 C 779 428.1340064 782.1340064 425 786 425 C 789.8659936 425 793 428.1340064 793 432 C 793 435.8659936 789.8659936 439 786 439 C 782.1340064 439 779 435.8659936 779 432 Z" stroke-miterlimit="10"/></g><g transform="translate(-246,-206) scale(1,1)"><path fill="none" stroke="#000000" d="M 727 425 L 727 439" stroke-miterlimit="10"/></g><g transform="translate(-246,-206) scale(1,1)"><path fill="none" stroke="#000000" d="M 734 425 L 734 439" stroke-miterlimit="10"/></g><g transform="translate(-246,-206) scale(1,1)"><g><path fill="none" stroke="none"/><text fill="#000000" stroke="none" font-family="Arial" font-size="13px" font-style="normal" font-weight="normal" text-decoration="none" x="744.5" y="417"></text></g></g><g transform="translate(-246,-206) scale(1,1)"><g><path fill="none" stroke="none"/><text fill="#000000" stroke="none" font-family="Arial" font-size="13px" font-style="normal" font-weight="normal" text-decoration="none" x="781.5" y="417"></text></g></g><g transform="translate(-246,-206) scale(1,1)"><path fill="none" stroke="#000000" d="M 952 296 L 952 376" stroke-miterlimit="10"/></g><g transform="translate(-246,-206) scale(1,1)"><path fill="none" stroke="#000000" d="M 952 362 L 945 376" stroke-miterlimit="10"/></g><g transform="translate(-246,-206) scale(1,1)"><path fill="none" stroke="#000000" d="M 952 362 L 959 376" stroke-miterlimit="10"/></g><g transform="translate(-246,-206) scale(1,1)"><path fill="#FFFFFF" stroke="none" d="M 945 354 C 945 350.1340064 948.1340064 347 952 347 C 955.8659936 347 959 350.1340064 959 354 C 959 357.8659936 955.8659936 361 952 361 C 948.1340064 361 945 357.8659936 945 354 Z"/></g><g transform="translate(-246,-206) scale(1,1)"><path fill="none" stroke="#000000" d="M 945 354 C 945 350.1340064 948.1340064 347 952 347 C 955.8659936 347 959 350.1340064 959 354 C 959 357.8659936 955.8659936 361 952 361 C 948.1340064 361 945 357.8659936 945 354 Z" stroke-miterlimit="10"/></g><g transform="translate(-246,-206) scale(1,1)"><path fill="none" stroke="#000000" d="M 959 303 L 945 303" stroke-miterlimit="10"/></g><g transform="translate(-246,-206) scale(1,1)"><path fill="none" stroke="#000000" d="M 959 310 L 945 310" stroke-miterlimit="10"/></g><g transform="translate(-246,-206) scale(1,1)"><g><path fill="none" stroke="none"/><text fill="#000000" stroke="none" font-family="Arial" font-size="13px" font-style="normal" font-weight="normal" text-decoration="none" x="966.5" y="321"></text></g></g><g transform="translate(-246,-206) scale(1,1)"><g><path fill="none" stroke="none"/><text fill="#000000" stroke="none" font-family="Arial" font-size="13px" font-style="normal" font-weight="normal" text-decoration="none" x="966.5" y="350"></text></g></g><g transform="translate(-246,-206) scale(1,1)"><rect fill="#C0C0C0" stroke="none" x="263" y="583" width="200" height="72" opacity="0.2"/></g><g transform="translate(-246,-206) scale(1,1)"><rect fill="#ffffff" stroke="none" x="256" y="576" width="200" height="72"/></g><g transform="translate(-246,-206) scale(1,1)"><path fill="none" stroke="#000000" d="M 256 576 L 456 576 L 456 648 L 256 648 L 256 576 Z Z" stroke-miterlimit="10"/></g><g transform="translate(-246,-206) scale(1,1)"><path fill="none" stroke="#000000" d="M 256 599 L 456 599" stroke-miterlimit="10"/></g><g transform="translate(-246,-206) scale(1,1)"><path fill="none" stroke="#000000" d="M 305 599 L 305 648" stroke-miterlimit="10"/></g><g transform="translate(-246,-206) scale(1,1)"><path fill="none" stroke="#000000" d="M 369.8818359375 599 L 369.8818359375 648" stroke-miterlimit="10"/></g><g transform="translate(-246,-206) scale(1,1)"><g><path fill="none" stroke="none"/><text fill="#000000" stroke="none" font-family="Arial" font-size="13px" font-style="normal" font-weight="bold" text-decoration="none" x="323.261962890625" y="591.5">TagMentor</text></g></g><g transform="translate(-246,-206) scale(1,1)"><g><path fill="none" stroke="none"/><text fill="#000000" stroke="none" font-family="Arial" font-size="13px" font-style="normal" font-weight="normal" text-decoration="none" x="261" y="613">PK,FK</text></g></g><g transform="translate(-246,-206) scale(1,1)"><g><path fill="none" stroke="none"/><text fill="#000000" stroke="none" font-family="Arial" font-size="13px" font-style="normal" font-weight="normal" text-decoration="none" x="310" y="613">idMentor</text></g></g><g transform="translate(-246,-206) scale(1,1)"><g><path fill="none" stroke="none"/><text fill="#000000" stroke="none" font-family="Arial" font-size="13px" font-style="normal" font-weight="normal" text-decoration="none" x="374.8818359375" y="613">INTEGER</text></g></g><g transform="translate(-246,-206) scale(1,1)"><g><path fill="none" stroke="none"/><text fill="#000000" stroke="none" font-family="Arial" font-size="13px" font-style="normal" font-weight="normal" text-decoration="none" x="261" y="610"></text></g></g><g transform="translate(-246,-206) scale(1,1)"><g><path fill="none" stroke="none"/><text fill="#000000" stroke="none" font-family="Arial" font-size="13px" font-style="normal" font-weight="normal" text-decoration="none" x="261" y="628">PK,FK</text></g></g><g transform="translate(-246,-206) scale(1,1)"><g><path fill="none" stroke="none"/><text fill="#000000" stroke="none" font-family="Arial" font-size="13px" font-style="normal" font-weight="normal" text-decoration="none" x="310" y="628">idTag</text></g></g><g transform="translate(-246,-206) scale(1,1)"><g><path fill="none" stroke="none"/><text fill="#000000" stroke="none" font-family="Arial" font-size="13px" font-style="normal" font-weight="normal" text-decoration="none" x="374.8818359375" y="628">INTEGER</text></g></g><g transform="translate(-246,-206) scale(1,1)"><g><path fill="none" stroke="none"/><text fill="#000000" stroke="none" font-family="Arial" font-size="13px" font-style="normal" font-weight="normal" text-decoration="none" x="261" y="625"></text></g></g><g transform="translate(-246,-206) scale(1,1)"><rect fill="#C0C0C0" stroke="none" x="847" y="583" width="232" height="80" opacity="0.2"/></g><g transform="translate(-246,-206) scale(1,1)"><rect fill="#ffffff" stroke="none" x="840" y="576" width="232" height="80"/></g><g transform="translate(-246,-206) scale(1,1)"><path fill="none" stroke="#000000" d="M 840 576 L 1072 576 L 1072 656 L 840 656 L 840 576 Z Z" stroke-miterlimit="10"/></g><g transform="translate(-246,-206) scale(1,1)"><path fill="none" stroke="#000000" d="M 840 599 L 1072 599" stroke-miterlimit="10"/></g><g transform="translate(-246,-206) scale(1,1)"><path fill="none" stroke="#000000" d="M 889 599 L 889 656" stroke-miterlimit="10"/></g><g transform="translate(-246,-206) scale(1,1)"><path fill="none" stroke="#000000" d="M 976.99365234375 599 L 976.99365234375 656" stroke-miterlimit="10"/></g><g transform="translate(-246,-206) scale(1,1)"><g><path fill="none" stroke="none"/><text fill="#000000" stroke="none" font-family="Arial" font-size="13px" font-style="normal" font-weight="bold" text-decoration="none" x="917.841064453125" y="591.5">TagMentoria</text></g></g><g transform="translate(-246,-206) scale(1,1)"><g><path fill="none" stroke="none"/><text fill="#000000" stroke="none" font-family="Arial" font-size="13px" font-style="normal" font-weight="normal" text-decoration="none" x="845" y="613">PK,FK</text></g></g><g transform="translate(-246,-206) scale(1,1)"><g><path fill="none" stroke="none"/><text fill="#000000" stroke="none" font-family="Arial" font-size="13px" font-style="normal" font-weight="normal" text-decoration="none" x="894" y="613">idMentor</text></g></g><g transform="translate(-246,-206) scale(1,1)"><g><path fill="none" stroke="none"/><text fill="#000000" stroke="none" font-family="Arial" font-size="13px" font-style="normal" font-weight="normal" text-decoration="none" x="981.99365234375" y="613">INTEGER</text></g></g><g transform="translate(-246,-206) scale(1,1)"><g><path fill="none" stroke="none"/><text fill="#000000" stroke="none" font-family="Arial" font-size="13px" font-style="normal" font-weight="normal" text-decoration="none" x="845" y="610"></text></g></g><g transform="translate(-246,-206) scale(1,1)"><g><path fill="none" stroke="none"/><text fill="#000000" stroke="none" font-family="Arial" font-size="13px" font-style="normal" font-weight="normal" text-decoration="none" x="845" y="628">PK,FK</text></g></g><g transform="translate(-246,-206) scale(1,1)"><g><path fill="none" stroke="none"/><text fill="#000000" stroke="none" font-family="Arial" font-size="13px" font-style="normal" font-weight="normal" text-decoration="none" x="894" y="628">idMentorado</text></g></g><g transform="translate(-246,-206) scale(1,1)"><g><path fill="none" stroke="none"/><text fill="#000000" stroke="none" font-family="Arial" font-size="13px" font-style="normal" font-weight="normal" text-decoration="none" x="981.99365234375" y="628">INTEGER</text></g></g><g transform="translate(-246,-206) scale(1,1)"><g><path fill="none" stroke="none"/><text fill="#000000" stroke="none" font-family="Arial" font-size="13px" font-style="normal" font-weight="normal" text-decoration="none" x="845" y="625"></text></g></g><g transform="translate(-246,-206) scale(1,1)"><g><path fill="none" stroke="none"/><text fill="#000000" stroke="none" font-family="Arial" font-size="13px" font-style="normal" font-weight="normal" text-decoration="none" x="845" y="643">PK,FK</text></g></g><g transform="translate(-246,-206) scale(1,1)"><g><path fill="none" stroke="none"/><text fill="#000000" stroke="none" font-family="Arial" font-size="13px" font-style="normal" font-weight="normal" text-decoration="none" x="894" y="643">idTag</text></g></g><g transform="translate(-246,-206) scale(1,1)"><g><path fill="none" stroke="none"/><text fill="#000000" stroke="none" font-family="Arial" font-size="13px" font-style="normal" font-weight="normal" text-decoration="none" x="981.99365234375" y="643">INTEGER</text></g></g><g transform="translate(-246,-206) scale(1,1)"><g><path fill="none" stroke="none"/><text fill="#000000" stroke="none" font-family="Arial" font-size="13px" font-style="normal" font-weight="normal" text-decoration="none" x="845" y="640"></text></g></g><g transform="translate(-246,-206) scale(1,1)"><path fill="none" stroke="#000000" d="M 352 576 L 352 440 M 352 440 A 8 8 0 0 1 360 432 L 544 432" stroke-miterlimit="10"/></g><g transform="translate(-246,-206) scale(1,1)"><path fill="none" stroke="#000000" d="M 530 432 L 544 439" stroke-miterlimit="10"/></g><g transform="translate(-246,-206) scale(1,1)"><path fill="none" stroke="#000000" d="M 530 432 L 544 425" stroke-miterlimit="10"/></g><g transform="translate(-246,-206) scale(1,1)"><path fill="#FFFFFF" stroke="none" d="M 515 432 C 515 428.1340064 518.1340064 425 522 425 C 525.8659936 425 529 428.1340064 529 432 C 529 435.8659936 525.8659936 439 522 439 C 518.1340064 439 515 435.8659936 515 432 Z"/></g><g transform="translate(-246,-206) scale(1,1)"><path fill="none" stroke="#000000" d="M 515 432 C 515 428.1340064 518.1340064 425 522 425 C 525.8659936 425 529 428.1340064 529 432 C 529 435.8659936 525.8659936 439 522 439 C 518.1340064 439 515 435.8659936 515 432 Z" stroke-miterlimit="10"/></g><g transform="translate(-246,-206) scale(1,1)"><path fill="none" stroke="#000000" d="M 345 569 L 359 569" stroke-miterlimit="10"/></g><g transform="translate(-246,-206) scale(1,1)"><path fill="none" stroke="#000000" d="M 345 562 L 359 562" stroke-miterlimit="10"/></g><g transform="translate(-246,-206) scale(1,1)"><g><path fill="none" stroke="none"/><text fill="#000000" stroke="none" font-family="Arial" font-size="13px" font-style="normal" font-weight="normal" text-decoration="none" x="336.5" y="550"></text></g></g><g transform="translate(-246,-206) scale(1,1)"><g><path fill="none" stroke="none"/><text fill="#000000" stroke="none" font-family="Arial" font-size="13px" font-style="normal" font-weight="normal" text-decoration="none" x="517.5" y="417"></text></g></g><g transform="translate(-246,-206) scale(1,1)"><path fill="none" stroke="#000000" d="M 456 616 L 560 616" stroke-miterlimit="10"/></g><g transform="translate(-246,-206) scale(1,1)"><path fill="none" stroke="#000000" d="M 546 616 L 560 623" stroke-miterlimit="10"/></g><g transform="translate(-246,-206) scale(1,1)"><path fill="none" stroke="#000000" d="M 546 616 L 560 609" stroke-miterlimit="10"/></g><g transform="translate(-246,-206) scale(1,1)"><path fill="#FFFFFF" stroke="none" d="M 531 616 C 531 612.1340064 534.1340064 609 538 609 C 541.8659936 609 545 612.1340064 545 616 C 545 619.8659936 541.8659936 623 538 623 C 534.1340064 623 531 619.8659936 531 616 Z"/></g><g transform="translate(-246,-206) scale(1,1)"><path fill="none" stroke="#000000" d="M 531 616 C 531 612.1340064 534.1340064 609 538 609 C 541.8659936 609 545 612.1340064 545 616 C 545 619.8659936 541.8659936 623 538 623 C 534.1340064 623 531 619.8659936 531 616 Z" stroke-miterlimit="10"/></g><g transform="translate(-246,-206) scale(1,1)"><path fill="none" stroke="#000000" d="M 463 609 L 463 623" stroke-miterlimit="10"/></g><g transform="translate(-246,-206) scale(1,1)"><path fill="none" stroke="#000000" d="M 470 609 L 470 623" stroke-miterlimit="10"/></g><g transform="translate(-246,-206) scale(1,1)"><g><path fill="none" stroke="none"/><text fill="#000000" stroke="none" font-family="Arial" font-size="13px" font-style="normal" font-weight="normal" text-decoration="none" x="480.5" y="601"></text></g></g><g transform="translate(-246,-206) scale(1,1)"><g><path fill="none" stroke="none"/><text fill="#000000" stroke="none" font-family="Arial" font-size="13px" font-style="normal" font-weight="normal" text-decoration="none" x="533.5" y="601"></text></g></g><g transform="translate(-246,-206) scale(1,1)"><path fill="none" stroke="#000000" d="M 840 616 L 720 616" stroke-miterlimit="10"/></g><g transform="translate(-246,-206) scale(1,1)"><path fill="none" stroke="#000000" d="M 734 616 L 720 609" stroke-miterlimit="10"/></g><g transform="translate(-246,-206) scale(1,1)"><path fill="none" stroke="#000000" d="M 734 616 L 720 623" stroke-miterlimit="10"/></g><g transform="translate(-246,-206) scale(1,1)"><path fill="#FFFFFF" stroke="none" d="M 735 616 C 735 612.1340064 738.1340064 609 742 609 C 745.8659936 609 749 612.1340064 749 616 C 749 619.8659936 745.8659936 623 742 623 C 738.1340064 623 735 619.8659936 735 616 Z"/></g><g transform="translate(-246,-206) scale(1,1)"><path fill="none" stroke="#000000" d="M 735 616 C 735 612.1340064 738.1340064 609 742 609 C 745.8659936 609 749 612.1340064 749 616 C 749 619.8659936 745.8659936 623 742 623 C 738.1340064 623 735 619.8659936 735 616 Z" stroke-miterlimit="10"/></g><g transform="translate(-246,-206) scale(1,1)"><path fill="none" stroke="#000000" d="M 833 623 L 833 609" stroke-miterlimit="10"/></g><g transform="translate(-246,-206) scale(1,1)"><path fill="none" stroke="#000000" d="M 826 623 L 826 609" stroke-miterlimit="10"/></g><g transform="translate(-246,-206) scale(1,1)"><g><path fill="none" stroke="none"/><text fill="#000000" stroke="none" font-family="Arial" font-size="13px" font-style="normal" font-weight="normal" text-decoration="none" x="813.5" y="630"></text></g></g><g transform="translate(-246,-206) scale(1,1)"><g><path fill="none" stroke="none"/><text fill="#000000" stroke="none" font-family="Arial" font-size="13px" font-style="normal" font-weight="normal" text-decoration="none" x="744.5" y="630"></text></g></g><g transform="translate(-246,-206) scale(1,1)"><path fill="none" stroke="#000000" d="M 952 576 L 952 488" stroke-miterlimit="10"/></g><g transform="translate(-246,-206) scale(1,1)"><path fill="none" stroke="#000000" d="M 952 502 L 959 488" stroke-miterlimit="10"/></g><g transform="translate(-246,-206) scale(1,1)"><path fill="none" stroke="#000000" d="M 952 502 L 945 488" stroke-miterlimit="10"/></g><g transform="translate(-246,-206) scale(1,1)"><path fill="#FFFFFF" stroke="none" d="M 945 510 C 945 506.1340064 948.1340064 503 952 503 C 955.8659936 503 959 506.1340064 959 510 C 959 513.8659936 955.8659936 517 952 517 C 948.1340064 517 945 513.8659936 945 510 Z"/></g><g transform="translate(-246,-206) scale(1,1)"><path fill="none" stroke="#000000" d="M 945 510 C 945 506.1340064 948.1340064 503 952 503 C 955.8659936 503 959 506.1340064 959 510 C 959 513.8659936 955.8659936 517 952 517 C 948.1340064 517 945 513.8659936 945 510 Z" stroke-miterlimit="10"/></g><g transform="translate(-246,-206) scale(1,1)"><path fill="none" stroke="#000000" d="M 945 569 L 959 569" stroke-miterlimit="10"/></g><g transform="translate(-246,-206) scale(1,1)"><path fill="none" stroke="#000000" d="M 945 562 L 959 562" stroke-miterlimit="10"/></g><g transform="translate(-246,-206) scale(1,1)"><g><path fill="none" stroke="none"/><text fill="#000000" stroke="none" font-family="Arial" font-size="13px" font-style="normal" font-weight="normal" text-decoration="none" x="936.5" y="550"></text></g></g><g transform="translate(-246,-206) scale(1,1)"><g><path fill="none" stroke="none"/><text fill="#000000" stroke="none" font-family="Arial" font-size="13px" font-style="normal" font-weight="normal" text-decoration="none" x="936.5" y="513"></text></g></g></g></svg>
